<svg width="108" height="38" viewBox="0 0 108 38" fill="none" xmlns="http://www.w3.org/2000/svg">
<path d="M9.78787 24.961C10.4025 24.961 10.9255 24.8518 11.3571 24.6336C11.8017 24.4024 12.1351 24.0814 12.3574 23.6706C12.5928 23.2468 12.704 22.7397 12.6909 22.149H18.9088C18.9219 23.7155 18.5296 25.0894 17.7319 26.2707C16.9473 27.4391 15.875 28.3507 14.5151 29.0056C13.1682 29.6476 11.6448 29.9686 9.94479 29.9686C8.28405 29.9686 6.83255 29.7054 5.59027 29.1789C4.34798 28.6396 3.30839 27.8949 2.47149 26.9448C1.64766 25.9818 1.02652 24.8583 0.608064 23.5743C0.202688 22.2903 0 20.8971 0 19.3948V18.9519C0 17.4496 0.202688 16.0564 0.608064 14.7724C1.02652 13.4756 1.64766 12.3521 2.47149 11.4019C3.30839 10.4389 4.34145 9.69421 5.57065 9.16776C6.81293 8.62848 8.2579 8.35884 9.90556 8.35884C11.6709 8.35884 13.227 8.68626 14.5739 9.34111C15.9339 9.99594 16.9996 10.9461 17.7712 12.1916C18.5427 13.4371 18.9219 14.9458 18.9088 16.7177H12.6909C12.704 16.0885 12.6059 15.5236 12.3967 15.0228C12.1874 14.522 11.8605 14.124 11.4159 13.8287C10.9844 13.5205 10.4286 13.3664 9.74864 13.3664C9.06865 13.3664 8.51943 13.5141 8.10098 13.8094C7.68253 14.1047 7.36215 14.5156 7.13985 15.0421C6.93062 15.5557 6.78678 16.1463 6.70832 16.814C6.64294 17.4817 6.61024 18.1943 6.61024 18.9519V19.3948C6.61024 20.1652 6.64294 20.8907 6.70832 21.5712C6.78678 22.2389 6.93716 22.8295 7.15946 23.3431C7.38177 23.8439 7.70214 24.2419 8.1206 24.5373C8.53905 24.8197 9.09481 24.961 9.78787 24.961Z" fill="black"/>
<path d="M28.7163 0V29.5834H22.0865V0H28.7163Z" fill="black"/>
<path d="M39.7792 8.74404V29.5834H33.1493V8.74404H39.7792ZM32.757 3.3705C32.757 2.44602 33.097 1.68846 33.777 1.09782C34.457 0.50718 35.3396 0.21186 36.425 0.21186C37.5104 0.21186 38.393 0.50718 39.073 1.09782C39.753 1.68846 40.093 2.44602 40.093 3.3705C40.093 4.29498 39.753 5.05254 39.073 5.64318C38.393 6.23382 37.5104 6.52914 36.425 6.52914C35.3396 6.52914 34.457 6.23382 33.777 5.64318C33.097 5.05254 32.757 4.29498 32.757 3.3705Z" fill="black"/>
<path d="M50.5282 12.7501V37.5955H43.9179V8.74404H50.077L50.5282 12.7501ZM63.5525 18.9133V19.3178C63.5525 20.8329 63.376 22.2389 63.0229 23.5357C62.6698 24.8326 62.1468 25.9625 61.4537 26.9255C60.7606 27.8885 59.8976 28.6396 58.8645 29.1789C57.8445 29.7054 56.6611 29.9686 55.3142 29.9686C54.0458 29.9686 52.9539 29.6925 52.0385 29.1404C51.1231 28.5883 50.3582 27.8243 49.7436 26.8485C49.129 25.8726 48.632 24.7555 48.2528 23.4972C47.8736 22.2389 47.5728 20.91 47.3505 19.5104V18.9904C47.5728 17.4881 47.8736 16.0949 48.2528 14.8109C48.632 13.5141 49.129 12.3842 49.7436 11.4212C50.3582 10.4582 51.1166 9.70705 52.0189 9.16776C52.9343 8.62848 54.0262 8.35884 55.2946 8.35884C56.6415 8.35884 57.8249 8.60922 58.8449 9.10999C59.878 9.61075 60.741 10.3298 61.4341 11.2671C62.1402 12.1916 62.6698 13.3022 63.0229 14.5991C63.376 15.8959 63.5525 17.334 63.5525 18.9133ZM56.9422 19.3178V18.9133C56.9422 18.1044 56.8834 17.3661 56.7657 16.6984C56.648 16.0179 56.4584 15.4273 56.1969 14.9265C55.9484 14.4257 55.615 14.0405 55.1965 13.7709C54.7781 13.5013 54.2615 13.3664 53.6469 13.3664C52.9408 13.3664 52.3458 13.4756 51.862 13.6939C51.3912 13.8993 51.012 14.2203 50.7243 14.6569C50.4497 15.0806 50.2535 15.6134 50.1359 16.2554C50.0312 16.8846 49.9855 17.6229 49.9986 18.4704V20.0497C49.9724 21.0255 50.0705 21.8858 50.2928 22.6305C50.5151 23.3624 50.9008 23.9338 51.4501 24.3447C51.9993 24.7555 52.7446 24.961 53.6862 24.961C54.3138 24.961 54.8369 24.8197 55.2554 24.5373C55.6738 24.2419 56.0073 23.8375 56.2557 23.3239C56.5042 22.7974 56.6807 22.194 56.7853 21.5134C56.8899 20.8329 56.9422 20.101 56.9422 19.3178Z" fill="black"/>
<path d="M73.1638 12.7501V37.5955H66.5536V8.74404H72.7127L73.1638 12.7501ZM86.1882 18.9133V19.3178C86.1882 20.8329 86.0116 22.2389 85.6586 23.5357C85.3055 24.8326 84.7824 25.9625 84.0894 26.9255C83.3963 27.8885 82.5332 28.6396 81.5002 29.1789C80.4802 29.7054 79.2968 29.9686 77.9499 29.9686C76.6814 29.9686 75.5895 29.6925 74.6742 29.1404C73.7588 28.5883 72.9938 27.8243 72.3792 26.8485C71.7646 25.8726 71.2677 24.7555 70.8885 23.4972C70.5093 22.2389 70.2085 20.91 69.9862 19.5104V18.9904C70.2085 17.4881 70.5093 16.0949 70.8885 14.8109C71.2677 13.5141 71.7646 12.3842 72.3792 11.4212C72.9938 10.4582 73.7523 9.70705 74.6546 9.16776C75.5699 8.62848 76.6618 8.35884 77.9303 8.35884C79.2772 8.35884 80.4606 8.60922 81.4806 9.10999C82.5136 9.61075 83.3767 10.3298 84.0697 11.2671C84.7759 12.1916 85.3055 13.3022 85.6586 14.5991C86.0116 15.8959 86.1882 17.334 86.1882 18.9133ZM79.5779 19.3178V18.9133C79.5779 18.1044 79.5191 17.3661 79.4014 16.6984C79.2837 16.0179 79.0941 15.4273 78.8326 14.9265C78.5841 14.4257 78.2506 14.0405 77.8322 13.7709C77.4137 13.5013 76.8972 13.3664 76.2826 13.3664C75.5765 13.3664 74.9815 13.4756 74.4976 13.6939C74.0269 13.8993 73.6477 14.2203 73.36 14.6569C73.0854 15.0806 72.8892 15.6134 72.7715 16.2554C72.6669 16.8846 72.6211 17.6229 72.6342 18.4704V20.0497C72.6081 21.0255 72.7061 21.8858 72.9284 22.6305C73.1507 23.3624 73.5365 23.9338 74.0857 24.3447C74.6349 24.7555 75.3803 24.961 76.3218 24.961C76.9495 24.961 77.4726 24.8197 77.891 24.5373C78.3095 24.2419 78.6429 23.8375 78.8914 23.3239C79.1399 22.7974 79.3164 22.194 79.421 21.5134C79.5256 20.8329 79.5779 20.101 79.5779 19.3178Z" fill="black"/>
<path d="M95.4072 27.1374L100.899 8.74404H108L99.4675 32.6842C99.2844 33.2107 99.0425 33.7756 98.7417 34.3791C98.441 34.9954 98.0291 35.5797 97.506 36.1318C96.9829 36.6839 96.3095 37.1333 95.4857 37.48C94.6749 37.8267 93.668 38 92.465 38C91.8242 38 91.3534 37.9679 91.0527 37.9037C90.765 37.8523 90.3204 37.756 89.7189 37.6148V32.9731C89.8889 32.9731 90.0327 32.9731 90.1504 32.9731C90.2812 32.9731 90.425 32.9731 90.5819 32.9731C91.2881 32.9731 91.8503 32.9025 92.2688 32.7613C92.7003 32.62 93.0272 32.4146 93.2495 32.145C93.4849 31.8753 93.668 31.5479 93.7988 31.1627L95.4072 27.1374ZM94.0145 8.74404L98.1925 23.3239L98.9183 30.1997H94.4853L86.9335 8.74404H94.0145Z" fill="black"/>
</svg>
