<svg width="48" height="48" viewBox="0 0 48 48" fill="none" xmlns="http://www.w3.org/2000/svg">
<path fill-rule="evenodd" clip-rule="evenodd" d="M23.9998 27C28.9704 27 32.9998 22.9706 32.9998 18C32.9998 13.0294 28.9704 9 23.9998 9C19.0292 9 14.9998 13.0294 14.9998 18C14.9998 22.9706 19.0292 27 23.9998 27ZM23.9998 45.6C31.8829 45.6 38.8782 41.7994 43.2535 35.9306C37.7694 32.1882 31.1401 30 23.9998 30C16.8595 30 10.2303 32.1882 4.74609 35.9306C9.12138 41.7994 16.1168 45.6 23.9998 45.6Z" fill="#DEDEDE"/>
<path fill-rule="evenodd" clip-rule="evenodd" d="M44.986 24.7757C44.8616 28.1999 43.9174 31.415 42.3438 34.2305C36.9289 31.1559 30.6662 29.4 24 29.4C17.3338 29.4 11.0711 31.1559 5.65617 34.2305C4.04366 31.3454 3.09206 28.0406 3.00633 24.5212C3.00212 24.348 3 24.1743 3 24C3 12.402 12.402 3 24 3C35.598 3 45 12.402 45 24C45 24.2597 44.9953 24.5183 44.986 24.7757ZM24 32.4C30.0619 32.4 35.7555 33.9772 40.6928 36.7435C36.8554 41.7625 30.8058 45 24 45C17.1942 45 11.1446 41.7625 7.30722 36.7435C12.2445 33.9771 17.9381 32.4 24 32.4ZM3.61238 36.6689C3.96753 37.2392 4.34594 37.7936 4.74628 38.3306C9.12157 44.1994 16.1169 48 24 48C31.8831 48 38.8784 44.1994 43.2537 38.3306C43.6541 37.7936 44.0325 37.2392 44.3876 36.6689C44.562 36.389 44.7307 36.1052 44.8936 35.8177C46.871 32.3292 48 28.2964 48 24C48 10.7452 37.2548 0 24 0C10.7452 0 0 10.7452 0 24C0 28.2964 1.12896 32.3292 3.1064 35.8177C3.26935 36.1052 3.43807 36.389 3.61238 36.6689ZM30 18C30 21.3137 27.3137 24 24 24C20.6863 24 18 21.3137 18 18C18 14.6863 20.6863 12 24 12C27.3137 12 30 14.6863 30 18ZM33 18C33 22.9706 28.9706 27 24 27C19.0294 27 15 22.9706 15 18C15 13.0295 19.0294 9.00001 24 9.00001C28.9706 9.00001 33 13.0295 33 18Z" fill="#DEDEDE"/>
</svg>
